<svg width="29" height="29" xmlns="http://www.w3.org/2000/svg">
                <g fill="none" fill-rule="evenodd">
                    <path fill="" d="M-1372 54H68v-80h-1440z"></path>
                    <g stroke="#FFF" stroke-width="2">
                        <path d="M27.387 14.194C27.387 6.907 21.48 1 14.193 1 6.907 1 1 6.907 1 14.194c0 7.286 5.907 13.193 13.193 13.193 7.287 0 13.194-5.907 13.194-13.193z"></path>
                        <path d="M23.706 23.32c-.641-2.953-3.127-5.239-6.182-5.57-2.22-.24-4.44-.24-6.661 0-3.056.331-5.54 2.617-6.182 5.57a13.144 13.144 0 009.512 4.067c3.742 0 7.112-1.564 9.513-4.066zM18.444 9.73a4.25 4.25 0 10-8.501 0 4.25 4.25 0 008.5 0z"></path>
                    </g>
                </g>
            </svg>